<?xml version="1.0" encoding="utf-8"?>
<!-- Generator: Adobe Illustrator 16.0.0, SVG Export Plug-In . SVG Version: 6.00 Build 0)  -->
<!DOCTYPE svg PUBLIC "-//W3C//DTD SVG 1.1//EN" "http://www.w3.org/Graphics/SVG/1.1/DTD/svg11.dtd">
<svg version="1.1" id="Layer_1" xmlns="http://www.w3.org/2000/svg" xmlns:xlink="http://www.w3.org/1999/xlink" x="0px" y="0px"
	 width="472px" height="703px" viewBox="0 0 472 703" enable-background="new 0 0 472 703" xml:space="preserve">
<g>
	<g>
		<g opacity="0.5">
			<circle fill="#FFFFFF" cx="267.265" cy="369.812" r="141.97"/>
			<path opacity="0.73" fill="#FFFFFF" d="M383.218,403.938v47.731c-5.232,7.398-11.113,14.23-17.618,20.49v-68.222h-0.027v-0.163
				c-0.083-0.354-8.647-7.453-15.231-12.849v-2.981l7.967-2.059c3.281-0.84,6.721-0.57,9.786,0.758
				c1.381,0.596,2.818,1.166,4.256,1.627v6.233c6.584,5.393,10.76,8.917,10.841,9.271v0.163H383.218z"/>
		</g>
		<g>
			<g>
				<polygon fill="#FBAF33" points="65.208,187.665 106.869,285.415 137.318,264.585 154.964,290.225 158.149,246.973 195,224.515 
									"/>
				<polygon fill="#F79338" points="144.068,259.958 106.869,285.415 137.318,264.585 154.964,290.225 158.149,246.973 99.428,212 
									"/>
				<polygon fill="#F47738" points="157.369,257.573 99.428,212 158.149,246.973 				"/>
			</g>
			<g>
				<path fill="#FFFFFF" d="M155.711,302.417c-0.328-1.907-0.744-3.805-1.239-5.65l2.857-0.763c0.517,1.93,0.951,3.918,1.295,5.91
					L155.711,302.417z"/>
				<path fill="#FFFFFF" d="M121.215,368.814c-4.294-0.289-8.401-1.656-11.879-3.963l1.634-2.463
					c3.05,2.019,6.659,3.22,10.441,3.474L121.215,368.814z M133.498,366.4l-1.305-2.654c3.076-1.51,6.053-3.856,8.845-6.967
					l2.204,1.978C140.192,362.148,136.915,364.723,133.498,366.4z M101.106,355.405c-1.67-3.376-2.552-7.094-2.548-10.742
					c0-0.301,0.006-0.6,0.019-0.899l0.034-0.641l2.949,0.217l-0.029,0.54c-0.008,0.263-0.016,0.526-0.016,0.784
					c0,3.197,0.776,6.461,2.243,9.437L101.106,355.405z M215.527,354.73l-0.013-2.958c3.853-0.017,7.816-0.175,11.78-0.467
					l0.216,2.949C223.482,354.552,219.448,354.712,215.527,354.73z M203.533,354.344l-1.89-0.148
					c-3.633-0.3-6.929-0.709-10.07-1.254l0.503-2.913c3.056,0.527,6.266,0.927,9.812,1.225l1.85,0.137L203.533,354.344z
					 M239.426,352.999l-0.401-2.931c3.805-0.517,7.725-1.164,11.655-1.922l0.558,2.903
					C247.259,351.816,243.283,352.472,239.426,352.999z M179.821,350.009c-3.475-1.182-6.734-2.627-9.685-4.293
					c-0.463-0.26-0.927-0.532-1.385-0.807l1.53-2.534c0.431,0.263,0.864,0.517,1.305,0.761c2.795,1.581,5.887,2.95,9.188,4.075
					L179.821,350.009z M150.308,348.832l-2.563-1.474c1.915-3.332,3.556-6.882,4.877-10.543l2.781,1.001
					C154.024,341.644,152.311,345.348,150.308,348.832z M262.928,348.504l-0.698-2.876c3.701-0.897,7.551-1.914,11.44-3.028
					l0.815,2.844C270.556,346.569,266.666,347.595,262.928,348.504z M285.908,341.955l-0.914-2.813
					c3.76-1.218,7.5-2.494,11.221-3.816l0.987,2.787C293.462,339.443,289.693,340.727,285.908,341.955z M158.879,338.057
					c-2.721-1.981-5.643-4.061-8.805-5.792l-0.989-0.524l1.354-2.629c0.354,0.181,0.706,0.369,1.053,0.56
					c3.319,1.815,6.452,4.047,9.128,5.995L158.879,338.057z M105.704,333.61l-2.066-2.114c2.603-2.55,6.162-4.461,10.883-5.841
					l0.993,2.79C111.169,329.717,107.922,331.439,105.704,333.61z M138.284,327.836c-3.363-0.752-6.81-1.134-10.25-1.134
					l-1.199,0.015l-0.073-2.956c4.07-0.101,8.179,0.295,12.168,1.19L138.284,327.836z M158.528,326.094l-2.915-0.516
					c0.68-3.823,1.033-7.719,1.052-11.581l2.958,0.014C159.603,318.04,159.233,322.105,158.528,326.094z"/>
				<path fill="#FFFFFF" d="M308.525,333.942l-1.051-2.764c1.84-0.7,3.681-1.414,5.514-2.13l1.074,2.755
					C312.221,332.523,310.378,333.237,308.525,333.942z"/>
			</g>
			<g>
				<g>
					<path fill="#794E1F" d="M365.584,403.943l-103.028,60.754l-103.031-60.754c0-0.05,0-0.121,0.018-0.17
						c0.084-0.385,5.77-5.132,14.442-12.177c0.084-0.065,0.152-0.134,0.235-0.204c28.449-23.097,88.336-70.4,88.336-70.4
						s59.883,47.303,88.332,70.4c8.808,7.147,14.596,11.976,14.679,12.38C365.584,403.822,365.584,403.893,365.584,403.943z"/>
					<g>
						<path fill="#FFFFFF" d="M304.926,270.676H193.764c-9.535,0-17.263,7.729-17.263,17.263v168.075
							c0,9.533,7.728,17.264,17.263,17.264h139.292c9.533,0,17.263-7.73,17.263-17.264V316.067L304.926,270.676z"/>
						<path fill="#E6E8E7" d="M304.926,298.803c0,9.537,7.729,17.264,17.264,17.264h28.129l-45.393-45.391V298.803z"/>
						<path fill="#A298CA" d="M247.296,299.086h-38.353c-3.395,0-6.149,2.751-6.149,6.152v38.35c0,3.396,2.754,6.148,6.149,6.148
							h38.353c3.395,0,6.148-2.753,6.148-6.148v-38.35C253.444,301.837,250.691,299.086,247.296,299.086z"/>
						<path fill="#D9DBDB" d="M299.833,363.812H207.81c-2.736,0-4.954,2.219-4.954,4.952l0,0c0,2.74,2.218,4.958,4.954,4.958h92.023
							c2.735,0,4.955-2.218,4.955-4.958l0,0C304.788,366.032,302.568,363.812,299.833,363.812z"/>
						<path fill="#D9DBDB" d="M299.833,388.498H207.81c-2.736,0-4.954,2.217-4.954,4.952l0,0c0,2.735,2.218,4.957,4.954,4.957
							h92.023c2.735,0,4.955-2.222,4.955-4.957l0,0C304.788,390.714,302.568,388.498,299.833,388.498z"/>
						<path fill="#D9DBDB" d="M258.04,412.44h-50.23c-2.736,0-4.954,2.219-4.954,4.954l0,0c0,2.739,2.218,4.957,4.954,4.957h50.23
							c2.737,0,4.957-2.218,4.957-4.957l0,0C262.997,414.659,260.776,412.44,258.04,412.44z"/>
					</g>
					<g>
						<path fill="#FBAF33" d="M365.595,403.938v98.843c0,6.906-5.647,12.555-12.556,12.555h-180.98
							c-6.909,0-12.521-5.648-12.521-12.555v-98.843l103.027,60.747L365.595,403.938z"/>
						<path fill="#F79338" d="M362.112,511.402L295.8,445.089l-33.235,19.597l-33.247-19.607l-66.317,66.32
							c2.283,2.41,5.487,3.938,9.058,3.938h180.98C356.609,515.336,359.821,513.812,362.112,511.402z"/>
					</g>
				</g>
			</g>
		</g>
	</g>
	<g>
		<path opacity="0.1" fill="#FFFFFF" d="M52.601,602.21c-4.682,0-8.476,3.792-8.476,8.475c0,4.681,3.794,8.478,8.476,8.478
			c4.683,0,8.478-3.797,8.478-8.478C61.079,606.002,57.284,602.21,52.601,602.21z M52.601,614.116c-1.894,0-3.431-1.534-3.431-3.432
			c0-1.892,1.537-3.431,3.431-3.431c1.895,0,3.433,1.539,3.433,3.431C56.034,612.582,54.496,614.116,52.601,614.116z"/>
		<path opacity="0.3" fill="#FFFFFF" d="M335.82,554.874c-4.683,0-8.478,3.798-8.478,8.48c0,4.68,3.795,8.477,8.478,8.477
			c4.682,0,8.478-3.797,8.478-8.477C344.298,558.672,340.501,554.874,335.82,554.874z M335.82,566.784
			c-1.895,0-3.433-1.537-3.433-3.43c0-1.897,1.538-3.433,3.433-3.433c1.894,0,3.432,1.535,3.432,3.433
			C339.252,565.247,337.714,566.784,335.82,566.784z"/>
		<path opacity="0.1" fill="#FFFFFF" d="M429.62,317.42c-3.585,0-6.49,2.908-6.49,6.492s2.905,6.49,6.49,6.49
			c3.584,0,6.49-2.906,6.49-6.49S433.205,317.42,429.62,317.42z M429.62,326.539c-1.451,0-2.626-1.176-2.626-2.627
			c0-1.453,1.176-2.628,2.626-2.628c1.45,0,2.627,1.175,2.627,2.628C432.248,325.363,431.07,326.539,429.62,326.539z"/>
		<path opacity="0.1" fill="#FFFFFF" d="M320.481,99.787c-3.792,0-6.864,3.073-6.864,6.862c0,3.791,3.073,6.864,6.864,6.864
			c3.789,0,6.861-3.073,6.861-6.864C327.342,102.86,324.27,99.787,320.481,99.787z M320.481,109.427
			c-1.533,0-2.778-1.241-2.778-2.777c0-1.534,1.245-2.777,2.778-2.777s2.778,1.243,2.778,2.777
			C323.259,108.186,322.014,109.427,320.481,109.427z"/>
		<circle opacity="0.3" fill="#FFFFFF" cx="78.843" cy="405.262" r="7.216"/>
		<path opacity="0.1" fill="#FFFFFF" d="M444.305,417.137c-2.898,0-5.248,2.352-5.248,5.247c0,2.9,2.35,5.249,5.248,5.249
			c2.897,0,5.248-2.348,5.248-5.249C449.553,419.489,447.203,417.137,444.305,417.137z"/>
		<circle opacity="0.3" fill="#FFFFFF" cx="143.442" cy="177.464" r="7.67"/>
		<circle opacity="0.3" fill="#FFFFFF" cx="196.37" cy="577.421" r="5.59"/>
		<circle opacity="0.3" fill="#FFFFFF" cx="313.617" cy="192.184" r="6.559"/>
		<circle opacity="0.3" fill="#FFFFFF" cx="75.109" cy="273.134" r="3.734"/>
		<circle opacity="0.3" fill="#FFFFFF" cx="377.053" cy="256.454" r="6.371"/>
		<circle opacity="0.1" fill="#FFFFFF" cx="19.436" cy="377.413" r="4.065"/>
		<path opacity="0.1" fill="#FFFFFF" d="M240.219,24.411l2.551-2.552c0.886-0.885,0.886-2.333,0-3.218
			c-0.885-0.887-2.333-0.887-3.217,0l-2.555,2.553l-2.551-2.553c-0.886-0.887-2.333-0.887-3.219,0c-0.885,0.885-0.885,2.333,0,3.218
			l2.552,2.552l-2.552,2.552c-0.885,0.886-0.885,2.334,0,3.219c0.885,0.886,2.333,0.886,3.219,0l2.551-2.553l2.555,2.553
			c0.884,0.886,2.332,0.886,3.217,0c0.886-0.885,0.886-2.333,0-3.219L240.219,24.411z"/>
		<path opacity="0.1" fill="#FFFFFF" d="M447.524,635.137l2.551-2.552c0.886-0.885,0.886-2.333,0-3.218
			c-0.885-0.887-2.333-0.887-3.217,0l-2.555,2.553l-2.551-2.553c-0.886-0.887-2.333-0.887-3.219,0c-0.885,0.885-0.885,2.333,0,3.218
			l2.552,2.552l-2.552,2.552c-0.885,0.886-0.885,2.334,0,3.219c0.885,0.886,2.333,0.886,3.219,0l2.551-2.553l2.555,2.553
			c0.884,0.886,2.332,0.886,3.217,0c0.886-0.885,0.886-2.333,0-3.219L447.524,635.137z"/>
		<path opacity="0.1" fill="#FFFFFF" d="M29.088,240.711l2.553-2.554c0.885-0.884,0.885-2.331,0-3.217
			c-0.886-0.886-2.333-0.886-3.219,0l-2.551,2.552l-2.554-2.552c-0.884-0.886-2.334-0.886-3.217,0c-0.886,0.886-0.886,2.333,0,3.217
			l2.552,2.554l-2.552,2.551c-0.886,0.886-0.886,2.335,0,3.22c0.883,0.886,2.333,0.886,3.217,0l2.554-2.553l2.551,2.553
			c0.886,0.886,2.333,0.886,3.219,0c0.885-0.885,0.885-2.334,0-3.22L29.088,240.711z"/>
		<path opacity="0.3" fill="#FFFFFF" d="M417.41,506.33l2.163-2.161c0.749-0.75,0.749-1.976,0-2.728
			c-0.751-0.748-1.977-0.748-2.725,0l-2.163,2.163l-2.162-2.163c-0.75-0.748-1.976-0.748-2.727,0c-0.749,0.752-0.749,1.978,0,2.728
			l2.162,2.161l-2.162,2.163c-0.749,0.749-0.749,1.975,0,2.726c0.75,0.75,1.976,0.75,2.727,0l2.162-2.163l2.163,2.163
			c0.748,0.75,1.974,0.75,2.725,0c0.749-0.751,0.749-1.977,0-2.726L417.41,506.33z"/>
	</g>
</g>
</svg>
