<?xml version="1.0" encoding="utf-8"?>
<!-- Generator: Adobe Illustrator 16.0.0, SVG Export Plug-In . SVG Version: 6.00 Build 0)  -->
<!DOCTYPE svg PUBLIC "-//W3C//DTD SVG 1.1//EN" "http://www.w3.org/Graphics/SVG/1.1/DTD/svg11.dtd">
<svg version="1.1" id="Layer_1" xmlns="http://www.w3.org/2000/svg" xmlns:xlink="http://www.w3.org/1999/xlink" x="0px" y="0px"
	 width="320px" height="88.871px" viewBox="0 0 320 88.871" enable-background="new 0 0 320 88.871" xml:space="preserve">
<g>
	<g opacity="0.8">
		<path id="Path_959" fill="#2EA1F8" d="M24.779,79.622c-4.464-0.015-8.244-3.294-8.895-7.706l-5.792-40.278
			c-0.706-4.88,2.666-9.413,7.557-10.127c0.015,0,0.037,0,0.059-0.007l10.95-1.574l1,6.784l-10.95,1.625
			c-1.136,0.151-1.927,1.191-1.776,2.32c0,0.008,0,0.022,0,0.029l5.784,40.227c0.165,1.133,1.213,1.912,2.342,1.766l30.369-4.354
			c0.919-0.118,1.559-0.956,1.43-1.876c0-0.007,0-0.021,0-0.036l-0.382-2.486l6.839-1l0.39,2.486
			c0.64,4.706-2.629,9.045-7.317,9.751l-30.372,4.397C25.591,79.563,25.161,79.615,24.779,79.622L24.779,79.622z"/>
	</g>
	<path id="Path_960" fill="#2EA1F8" d="M65.722,66.856H35.299c-4.954,0-8.977-4.016-8.983-8.973c0-0.015,0-0.015,0-0.029V17.731
		c-0.015-4.957,3.997-8.987,8.954-8.994c0.007,0,0.021,0,0.029,0h30.423c4.964-0.008,8.983,4,8.998,8.953c0,0.008,0,0.022,0,0.041
		v40.123c0.007,4.957-3.997,8.986-8.953,8.986C65.745,66.856,65.73,66.856,65.722,66.856z M35.292,15.671
		c-1.129-0.007-2.048,0.897-2.056,2.026c0,0.007,0,0.015,0,0.033v40.123c-0.007,1.133,0.905,2.037,2.026,2.052
		c0.008,0,0.022,0,0.029,0h30.424c1.129,0.008,2.041-0.89,2.056-2.037c0,0,0-0.015,0-0.029V17.731
		c0.007-1.133-0.897-2.049-2.034-2.06c-0.007,0-0.015,0-0.029,0H35.292z"/>
	<path id="Path_961" fill="#2EA1F8" d="M58.119,39.153c0,4.045-3.284,7.313-7.321,7.313s-7.32-3.269-7.32-7.313l0,0H58.119z"/>
	<path id="Path_962" fill="#2EA1F8" d="M44.29,32.262c0,1.537-1.232,2.779-2.762,2.779c-1.537,0-2.779-1.242-2.779-2.779
		c0-1.529,1.242-2.769,2.779-2.769C43.057,29.494,44.29,30.733,44.29,32.262z"/>
	<path id="Path_963" fill="#2EA1F8" d="M62.274,32.262c0,1.537-1.243,2.779-2.772,2.779c-1.534,0-2.77-1.242-2.77-2.772
		c-0.007-1.536,1.235-2.775,2.762-2.775l0,0C61.031,29.494,62.274,30.733,62.274,32.262z"/>
	<g>
		<path fill="#2EA1F8" d="M125.378,46.541c0.363-0.239,0.665-0.36,0.904-0.36c0.662,0,1.129,0.224,1.401,0.673
			c0.279,0.456,0.353,0.985,0.224,1.588c-0.36,1.81-1.231,3.611-2.618,5.42c-1.386,1.802-3.088,3.435-5.107,4.876
			c-2.019,1.448-4.291,2.625-6.82,3.53c-2.53,0.896-5.151,1.353-7.861,1.353c-3.916,0-7.248-1.008-9.987-3.029
			c-2.742-2.016-4.354-4.795-4.835-8.354c-0.423-2.766-0.346-5.747,0.229-8.939c0.569-3.195,1.61-6.056,3.114-8.585
			c0.603-1.085,1.4-2.17,2.397-3.255c0.992-1.084,2.184-2.062,3.566-2.938c1.386-0.871,2.952-1.596,4.699-2.166
			c1.746-0.573,3.706-0.86,5.876-0.86c2.952,0,5.36,0.662,7.229,1.989c1.868,1.324,2.953,3.041,3.254,5.151
			c0.302,2.287-0.092,4.428-1.176,6.413c-1.085,1.989-2.604,3.691-4.563,5.107c-1.956,1.416-4.218,2.485-6.776,3.206
			c-2.56,0.729-5.196,0.935-7.909,0.633c-0.118,1.272-0.089,2.441,0.092,3.522c0.18,1.088,0.559,2.022,1.129,2.81
			c0.573,0.779,1.386,1.411,2.441,1.896c1.055,0.479,2.423,0.78,4.11,0.912c3.615-0.066,6.854-1.103,9.715-3.133
			C120.965,51.978,123.4,49.493,125.378,46.541z M100.709,43.65c1.507,0.36,3.025,0.316,4.562-0.136
			c1.537-0.453,2.895-1.177,4.067-2.17s2.092-2.185,2.758-3.57c0.661-1.383,0.9-2.802,0.721-4.247
			c-0.122-0.842-0.423-1.537-0.905-2.077c-0.481-0.541-1.294-0.812-2.438-0.812c-0.963,0-1.912,0.331-2.846,0.992
			c-0.941,0.662-1.795,1.581-2.578,2.758c-0.783,1.173-1.475,2.56-2.077,4.155C101.371,40.138,100.952,41.84,100.709,43.65z"/>
		<path fill="#2EA1F8" d="M123.581,45.275c0.359-2.169,0.827-4.456,1.4-6.868c0.57-2.409,1.235-4.622,1.985-6.641
			c0.754-2.02,1.574-3.707,2.441-5.06c0.872-1.357,1.762-2.097,2.666-2.214c0.964,0,1.956,0.088,2.982,0.269
			c0.842,0.121,1.61,0.394,2.306,0.816c0.698,0.419,1.099,0.963,1.217,1.625c0.062,0.309,0.019,0.647-0.133,1.04
			c-0.158,0.391-0.363,0.872-0.636,1.445c-0.269,0.57-0.556,1.25-0.856,2.033c-0.302,0.783-0.541,1.718-0.725,2.803
			c1.989-2.651,4.232-4.732,6.732-6.236c2.5-1.508,4.655-2.262,6.464-2.262c2.229,0,3.916,0.618,5.06,1.854s1.725,2.879,1.725,4.927
			c2.287-1.931,4.328-3.541,6.138-4.835c1.805-1.295,3.706-1.945,5.691-1.945c1.751,0,3.266,0.452,4.53,1.356
			c1.265,0.905,2.037,2.141,2.346,3.707c0.42,1.746,0.302,3.658-0.36,5.736c-0.661,2.081-1.463,4.173-2.397,6.28
			c-0.926,2.11-1.765,4.188-2.529,6.232c-0.75,2.052-1.008,3.927-0.765,5.604c0.117,0.662,0.404,1.177,0.853,1.545
			c0.456,0.353,1.185,0.536,2.221,0.536c0.831,0,1.722-0.316,2.663-0.948c0.94-0.633,1.882-1.412,2.846-2.354
			c0.963-0.927,1.883-1.971,2.758-3.118c0.867-1.14,1.64-2.221,2.302-3.25c0.544-0.721,1.177-0.872,1.904-0.456
			c0.479,0.125,0.765,0.353,0.854,0.684c0.088,0.331,0.103,0.706,0.044,1.125c0.059,1.266-0.471,2.766-1.581,4.472
			c-1.11,1.721-2.516,3.368-4.199,4.927c-1.691,1.574-3.53,2.897-5.516,3.979s-3.883,1.626-5.692,1.626
			c-2.353,0-4.338-0.501-5.964-1.486c-1.625-1-2.592-2.515-2.894-4.566c-0.239-1.508-0.044-3.258,0.588-5.243
			c0.633-1.986,1.343-3.972,2.126-5.961s1.467-3.887,2.07-5.695c0.603-1.806,0.765-3.313,0.459-4.52
			c-0.129-0.419-0.43-0.677-0.904-0.765c-0.481-0.092-1.062-0.077-1.725,0.044c-1.927,0.302-3.607,1.431-5.06,3.391
			c-1.438,1.956-2.695,4.247-3.751,6.865c-1.055,2.625-1.927,5.346-2.621,8.178c-0.691,2.823-1.218,5.272-1.581,7.316
			c-0.129,0.971-0.412,1.618-0.857,1.941c-0.444,0.339-1.099,0.501-1.944,0.501c-1.266,0-2.468-0.206-3.615-0.633
			c-1.136-0.419-1.897-1.265-2.258-2.537c0-2.221,0.346-4.501,1.041-6.817c0.698-2.324,1.445-4.552,2.265-6.692
			c0.806-2.136,1.516-4.141,2.118-6.008c0.6-1.868,0.812-3.493,0.633-4.88c-0.177-0.36-0.604-0.646-1.265-0.86
			c-0.666-0.209-1.328-0.283-1.989-0.225c-1.931,0.31-3.586,1.372-4.972,3.207c-1.387,1.838-2.545,3.964-3.479,6.372
			S133.052,49.5,132.482,52c-0.573,2.508-1.04,4.545-1.408,6.104c-0.121,0.537-0.242,1.089-0.364,1.633
			c-0.121,0.544-0.261,1.074-0.452,1.574c-0.188,0.515-0.404,0.94-0.684,1.265c-0.265,0.338-0.677,0.529-1.214,0.588
			c-0.301,0.185-0.603,0.221-0.9,0.096c-0.481-0.125-1.177-0.346-2.081-0.684c-0.901-0.324-1.655-1.147-2.258-2.479
			c-0.302-0.787-0.467-1.839-0.496-3.17c-0.03-1.323,0-2.706,0.088-4.147c0.092-1.448,0.228-2.854,0.408-4.206
			C123.3,47.22,123.452,46.121,123.581,45.275z"/>
		<path fill="#2EA1F8" d="M225.687,48.801c0,1.265-0.537,2.758-1.625,4.472c-1.089,1.713-2.457,3.346-4.118,4.875
			c-1.647,1.545-3.472,2.854-5.465,3.935c-1.992,1.081-3.89,1.626-5.699,1.626c-2.294,0-4.037-0.479-5.235-1.441
			c-1.206-0.971-2.022-2.772-2.442-5.428c-1.559,2.471-3.338,4.229-5.324,5.295c-1.992,1.044-3.86,1.604-5.604,1.662
			c-2.714,0-5.074-0.758-7.097-2.25c-2.022-1.516-3.206-3.736-3.566-6.692c-0.309-2.104-0.177-4.295,0.36-6.553
			s1.368-4.457,2.479-6.597c1.117-2.137,2.456-4.155,4.029-6.053c1.56-1.896,3.236-3.57,5.016-5.015
			c1.772-1.445,3.597-2.593,5.464-3.435c1.868-0.842,3.67-1.265,5.435-1.265c0.831,0,1.618,0.15,2.339,0.452
			c0.729,0.302,1.331,0.632,1.81,0.992l0.728-2.621c0.125-0.302,0.419-0.526,0.904-0.677c0.479-0.15,0.927-0.225,1.354-0.225
			c0.603,0,1.279,0.074,2.044,0.225c0.751,0.158,1.441,0.375,2.074,0.677s1.169,0.68,1.633,1.132
			c0.448,0.449,0.735,0.979,0.846,1.582c-0.125,1.684-0.706,4.383-1.758,8.085c-1.059,3.707-2.39,8.571-4.016,14.595
			c-0.242,0.846-0.426,1.61-0.544,2.302c-0.117,0.691-0.177,1.404-0.177,2.125c0.06,1.508,1.03,2.258,2.897,2.258
			c1.383,0,2.891-0.691,4.516-2.074c1.633-1.382,3.266-3.073,4.883-5.06l1.53-2.353c0.309-0.302,0.632-0.456,1-0.456
			c0.353,0,0.647,0.221,0.853,0.632C225.4,47.956,225.562,48.382,225.687,48.801z M193.969,56.295
			c1.206-0.059,2.229-0.324,3.074-0.81c0.838-0.485,1.559-1.132,2.162-1.941c0.603-0.809,1.11-1.765,1.544-2.846
			c0.412-1.081,0.802-2.258,1.169-3.522c0.662-2.714,1.316-5.307,1.949-7.773c0.632-2.471,1.279-4.972,1.941-7.501
			c-0.427-0.842-1.397-1.235-2.897-1.177c-1.81,0.184-3.545,1.133-5.192,2.85c-1.646,1.714-3.118,3.747-4.383,6.097
			s-2.235,4.732-2.897,7.141s-0.897,4.365-0.721,5.872c0.177,1.331,0.633,2.258,1.354,2.802
			C191.799,56.031,192.763,56.295,193.969,56.295z"/>
		<path fill="#2EA1F8" d="M245.3,49.25c0.059,1.382-0.479,2.912-1.633,4.566c-1.147,1.654-2.574,3.229-4.295,4.699
			c-1.714,1.471-3.596,2.706-5.647,3.706c-2.037,0.985-3.913,1.486-5.604,1.486c-2.529,0-4.279-0.501-5.272-1.486
			c-1.008-1-1.654-2.573-1.948-4.75c-0.177-1.089-0.235-2.516-0.177-4.295c0.059-1.772,0.221-3.729,0.485-5.868
			c0.279-2.141,0.662-4.307,1.177-6.505c0.515-2.199,1.132-4.266,1.853-6.192s1.589-3.585,2.574-4.972
			c1-1.382,2.125-2.316,3.391-2.798c1.331-0.302,2.382-0.364,3.169-0.181c1.015,0.118,1.743,0.449,2.162,0.993
			c0.427,0.541,0.633,1.085,0.633,1.625c-0.059,1.206-0.206,2.335-0.449,3.391c-0.242,1.052-0.544,2.121-0.904,3.206
			c-0.367,1.085-0.765,2.243-1.221,3.479s-0.919,2.666-1.412,4.295c-0.471,1.504-1,3.269-1.573,5.284
			c-0.574,2.022-0.854,3.816-0.854,5.376c0.177,1.507,1.133,2.265,2.891,2.265c1.39,0,2.919-0.743,4.61-2.221
			c1.685-1.471,3.339-3.236,4.957-5.28c0.309-0.309,0.588-0.647,0.86-1.044c0.272-0.391,0.5-0.589,0.684-0.589
			c0.412,0,0.758,0.184,0.985,0.544C244.991,48.353,245.182,48.765,245.3,49.25z M235.902,21.147
			c-1.03-0.118-1.949-0.556-2.766-1.31c-0.802-0.754-1.367-1.912-1.662-3.479c-0.125-1.327-0.065-2.559,0.177-3.706
			c0.235-1.144,0.589-2.122,1.037-2.935c0.448-0.816,1.008-1.448,1.669-1.9c0.662-0.453,1.324-0.677,2.001-0.677
			c0.588,0,1.338,0.106,2.213,0.316c0.86,0.209,1.714,0.496,2.53,0.86c0.802,0.36,1.492,0.798,2.066,1.309
			c0.573,0.511,0.927,1.07,1.052,1.673c0,0.6-0.464,1.416-1.36,2.438c-0.787,0.963-1.42,1.896-1.897,2.802
			c-0.479,0.904-0.912,1.702-1.266,2.394c-0.367,0.695-0.742,1.25-1.125,1.673c-0.404,0.423-0.86,0.633-1.404,0.633
			c-0.177,0-0.383,0-0.589,0C236.373,21.239,236.137,21.209,235.902,21.147z"/>
		<path fill="#2EA1F8" d="M267.795,49.25c0,1.448-0.573,3.015-1.728,4.699c-1.133,1.684-2.589,3.272-4.324,4.743
			c-1.75,1.478-3.691,2.706-5.832,3.699c-2.14,1.007-4.199,1.492-6.185,1.492c-1.927,0-3.604-0.521-5.016-1.581
			c-1.419-1.052-2.279-2.787-2.581-5.185c-0.169-1.331-0.169-3.485,0.052-6.472c0.206-2.978,0.603-6.35,1.169-10.115
			c0.573-3.766,1.331-7.711,2.258-11.84c0.941-4.126,2.029-7.979,3.265-11.564c1.222-3.585,2.647-6.688,4.236-9.31
			c1.604-2.618,3.36-4.292,5.287-5.016c0.545-0.059,1.097-0.015,1.67,0.136s1.103,0.346,1.588,0.588
			c1.03,0.243,2.022,0.783,2.979,1.626c0.956,0.846,1.508,1.779,1.626,2.802c0.176,1.085-0.177,2.229-1.089,3.435
			c-0.897,1.327-1.912,3.133-3.022,5.423c-1.11,2.287-2.229,4.788-3.346,7.498c-1.104,2.713-2.177,5.545-3.207,8.497
			c-1.021,2.949-1.897,5.766-2.617,8.446c-0.736,2.685-1.266,5.137-1.633,7.365c-0.368,2.235-0.456,3.979-0.265,5.243
			c0.117,0.904,0.434,1.625,0.948,2.17c0.508,0.544,1.309,0.809,2.39,0.809c0.897,0,1.897-0.309,2.979-0.941
			c1.081-0.632,2.17-1.434,3.258-2.397c1.089-0.971,2.104-1.971,3.067-3.029c0.963-1.06,1.742-2.03,2.346-2.942
			c0.434-0.235,0.802-0.117,1.132,0.368C267.539,48.382,267.745,48.831,267.795,49.25z"/>
		<path fill="#2EA1F8" d="M293.101,62.899c-0.118,0.36-0.177,0.633-0.177,0.81c2.295,0.176,4.472,0.565,6.553,1.169
			c2.066,0.603,3.904,1.419,5.464,2.441c1.573,1.022,2.81,2.243,3.706,3.655c0.905,1.419,1.354,3.059,1.354,4.927
			c0,1.191-0.279,2.31-0.854,3.339c-0.573,1.022-1.521,1.529-2.853,1.529c-1.016,0-2.067-0.294-3.163-0.896
			c-1.081-0.604-1.927-1.53-2.529-2.81c-0.839-1.735-2.118-3.221-3.839-4.42c-1.721-1.206-3.604-2.14-5.647-2.802
			c-0.479,1.985-1.206,3.941-2.162,5.868c-0.971,1.927-2.177,3.655-3.611,5.199c-1.448,1.53-3.118,2.78-5.016,3.751
			c-1.904,0.956-3.993,1.434-6.28,1.434c-3.316,0-5.758-0.816-7.332-2.485c-1.559-1.662-2.346-3.626-2.346-5.92
			c0-1.993,0.522-3.758,1.581-5.324c1.06-1.566,2.472-2.935,4.236-4.111c1.779-1.169,3.854-2.14,6.192-2.897
			c2.353-0.75,4.794-1.279,7.324-1.573c0.294-1.574,0.588-3.045,0.853-4.442c0.28-1.382,0.618-2.669,1.045-3.875
			c-1.441,2.169-3.28,4.008-5.509,5.508c-2.228,1.5-4.581,2.266-7.052,2.266c-2.707,0-4.935-0.92-6.692-2.758
			c-1.75-1.839-2.618-4.288-2.618-7.361c0-1.324,0.103-2.912,0.316-4.751c0.213-1.835,0.522-3.747,0.948-5.736
			c0.427-1.985,0.935-3.975,1.537-5.964c0.596-1.986,1.279-3.751,2.037-5.284c0.75-1.537,1.604-2.787,2.574-3.751
			c0.963-0.963,1.993-1.448,3.074-1.448c1.323,0,2.346,0.136,3.073,0.408c0.721,0.272,1.25,0.603,1.574,0.992
			c0.338,0.394,0.529,0.831,0.588,1.313c0.06,0.481,0.089,0.934,0.089,1.353c0,0.423-0.029,0.725-0.089,0.905
			c-0.302,1.265-0.691,2.5-1.177,3.706c-0.478,1.202-0.985,2.485-1.529,3.839c-0.544,1.356-1.125,2.802-1.758,4.339
			c-0.632,1.537-1.221,3.269-1.758,5.195c-0.132,0.485-0.265,1.104-0.411,1.854c-0.162,0.75-0.221,1.515-0.221,2.31
			c0,1.14,0.206,2.147,0.632,3.022c0.412,0.875,1.236,1.309,2.435,1.309c1.5,0,2.875-0.492,4.111-1.493
			c1.235-0.992,2.353-2.316,3.39-3.971c1.022-1.662,1.979-3.589,2.846-5.788c0.868-2.198,1.707-4.5,2.486-6.912
			c0.36-1.324,0.721-2.681,1.088-4.067c0.354-1.383,0.795-2.633,1.31-3.747c0.515-1.117,1.132-2.019,1.853-2.713
			c0.721-0.691,1.589-1.037,2.618-1.037c0.427,0,0.935,0.073,1.537,0.225c0.596,0.15,1.14,0.345,1.633,0.588
			c0.478,0.239,0.897,0.54,1.265,0.904c0.36,0.36,0.537,0.721,0.537,1.085c0,2.048-0.191,4.199-0.589,6.46
			c-0.396,2.258-0.934,4.715-1.632,7.365c-0.691,2.647-1.471,5.557-2.347,8.719C294.895,55.531,293.999,59.045,293.101,62.899z
			 M269.605,76.724c-0.066,0.235-0.096,0.574-0.096,0.986c0,2.471,1.39,3.706,4.162,3.706c1.441,0,2.677-0.427,3.707-1.309
			c1.021-0.868,1.897-1.957,2.625-3.258c0.721-1.295,1.294-2.685,1.714-4.199c0.426-1.516,0.786-2.897,1.088-4.163
			c-1.633,0-3.191,0.162-4.699,0.5c-1.5,0.324-2.846,0.839-4.015,1.53c-1.17,0.691-2.17,1.552-2.979,2.573
			C270.289,74.136,269.789,75.342,269.605,76.724z"/>
	</g>
</g>
</svg>
