<?xml version="1.0" encoding="utf-8"?>
<!-- Generator: Adobe Illustrator 16.0.0, SVG Export Plug-In . SVG Version: 6.00 Build 0)  -->
<!DOCTYPE svg PUBLIC "-//W3C//DTD SVG 1.1//EN" "http://www.w3.org/Graphics/SVG/1.1/DTD/svg11.dtd">
<svg version="1.1" id="Layer_1" xmlns="http://www.w3.org/2000/svg" xmlns:xlink="http://www.w3.org/1999/xlink" x="0px" y="0px"
	 width="41.667px" height="17.833px" viewBox="0 0 41.667 17.833" enable-background="new 0 0 41.667 17.833" xml:space="preserve">
<g opacity="0.8">
	<path id="Path_959" fill="#FFFFFF" d="M2.751,13.772c-0.593-0.002-1.095-0.437-1.181-1.023L0.801,7.4
		C0.707,6.752,1.155,6.15,1.804,6.055c0.002,0,0.005,0,0.008-0.001l1.454-0.209l0.133,0.901L1.945,6.962
		C1.794,6.982,1.689,7.12,1.709,7.27c0,0.001,0,0.003,0,0.004l0.768,5.342c0.022,0.15,0.161,0.254,0.311,0.234l4.033-0.578
		c0.122-0.016,0.207-0.127,0.19-0.249c0-0.001,0-0.003,0-0.005l-0.051-0.33l0.908-0.133l0.052,0.33
		c0.085,0.625-0.349,1.201-0.972,1.295l-4.033,0.584C2.859,13.764,2.802,13.771,2.751,13.772L2.751,13.772z"/>
</g>
<path id="Path_960" fill="#FFFFFF" d="M8.188,12.076h-4.04c-0.658,0.001-1.192-0.532-1.193-1.19c0-0.002,0-0.002,0-0.004V5.553
	C2.953,4.895,3.486,4.36,4.144,4.359c0.001,0,0.003,0,0.004,0h4.04C8.847,4.358,9.381,4.89,9.383,5.548c0,0.001,0,0.003,0,0.005
	v5.328c0.001,0.658-0.531,1.193-1.189,1.194C8.191,12.076,8.189,12.076,8.188,12.076z M4.147,5.28
	c-0.15-0.001-0.272,0.119-0.273,0.269c0,0.001,0,0.002,0,0.004v5.328c-0.001,0.15,0.12,0.271,0.269,0.273c0.001,0,0.003,0,0.004,0
	h4.04c0.15,0.001,0.271-0.119,0.273-0.27c0-0.001,0-0.002,0-0.004V5.553c0.001-0.15-0.119-0.272-0.27-0.273
	c-0.001,0-0.002,0-0.004,0L4.147,5.28z"/>
<path id="Path_961" fill="#FFFFFF" d="M7.178,8.398c0,0.537-0.436,0.971-0.972,0.971S5.234,8.935,5.234,8.398l0,0H7.178z"/>
<path id="Path_962" fill="#FFFFFF" d="M5.342,7.483c0,0.204-0.164,0.369-0.367,0.369c-0.204,0-0.369-0.165-0.369-0.369
	c0-0.203,0.165-0.368,0.369-0.368C5.178,7.115,5.342,7.28,5.342,7.483z"/>
<path id="Path_963" fill="#FFFFFF" d="M7.73,7.483c0,0.204-0.165,0.369-0.368,0.369c-0.204,0-0.368-0.165-0.368-0.368
	C6.993,7.28,7.158,7.115,7.361,7.115l0,0C7.565,7.115,7.73,7.28,7.73,7.483z"/>
<g>
	<path fill="#FFFFFF" d="M16.11,9.379c0.048-0.032,0.088-0.048,0.12-0.048c0.088,0,0.15,0.03,0.186,0.09
		c0.037,0.06,0.047,0.13,0.03,0.21c-0.048,0.24-0.164,0.48-0.348,0.72c-0.184,0.24-0.41,0.456-0.678,0.647
		c-0.268,0.193-0.57,0.349-0.906,0.469c-0.336,0.12-0.684,0.18-1.044,0.18c-0.52,0-0.962-0.134-1.326-0.402
		c-0.364-0.268-0.578-0.637-0.642-1.109c-0.056-0.368-0.046-0.764,0.03-1.188c0.076-0.424,0.214-0.804,0.414-1.14
		c0.08-0.144,0.186-0.288,0.318-0.432c0.132-0.144,0.29-0.274,0.474-0.39c0.184-0.116,0.392-0.212,0.624-0.288
		s0.492-0.114,0.78-0.114c0.392,0,0.712,0.088,0.96,0.264c0.248,0.176,0.392,0.404,0.432,0.684c0.04,0.304-0.012,0.588-0.156,0.852
		c-0.144,0.264-0.346,0.49-0.606,0.678c-0.26,0.188-0.56,0.33-0.9,0.426c-0.34,0.096-0.69,0.124-1.05,0.084
		c-0.016,0.168-0.012,0.324,0.012,0.468s0.074,0.268,0.15,0.372s0.184,0.188,0.324,0.252c0.14,0.064,0.322,0.104,0.546,0.121
		c0.48-0.008,0.91-0.146,1.29-0.415C15.524,10.101,15.847,9.771,16.11,9.379z M12.834,8.995c0.2,0.048,0.402,0.042,0.606-0.018
		s0.384-0.156,0.54-0.288c0.156-0.132,0.278-0.29,0.366-0.474c0.088-0.184,0.12-0.372,0.096-0.564
		c-0.016-0.112-0.056-0.204-0.12-0.276c-0.064-0.072-0.172-0.108-0.324-0.108c-0.128,0-0.254,0.044-0.378,0.132
		c-0.125,0.088-0.238,0.21-0.342,0.366c-0.104,0.156-0.196,0.34-0.276,0.552S12.866,8.755,12.834,8.995z"/>
	<path fill="#FFFFFF" d="M15.871,9.211c0.048-0.288,0.11-0.592,0.186-0.912s0.164-0.614,0.264-0.882
		c0.1-0.268,0.209-0.492,0.324-0.672c0.116-0.18,0.234-0.278,0.354-0.294c0.128,0,0.26,0.012,0.396,0.036
		c0.112,0.016,0.214,0.052,0.306,0.108c0.093,0.056,0.146,0.128,0.162,0.216c0.008,0.041,0.002,0.086-0.018,0.138
		c-0.021,0.052-0.048,0.116-0.084,0.192c-0.036,0.076-0.074,0.166-0.114,0.27s-0.072,0.228-0.096,0.372
		c0.264-0.352,0.562-0.628,0.894-0.828c0.332-0.2,0.618-0.3,0.858-0.3c0.296,0,0.52,0.082,0.672,0.246s0.229,0.382,0.229,0.654
		c0.304-0.256,0.575-0.47,0.815-0.642c0.24-0.172,0.492-0.258,0.756-0.258c0.232,0,0.433,0.06,0.601,0.18
		c0.168,0.12,0.271,0.284,0.312,0.492c0.056,0.232,0.04,0.486-0.048,0.762c-0.088,0.276-0.194,0.554-0.318,0.834
		c-0.124,0.28-0.235,0.556-0.336,0.828c-0.1,0.272-0.134,0.521-0.102,0.744c0.016,0.088,0.054,0.156,0.114,0.205
		c0.06,0.047,0.157,0.071,0.294,0.071c0.111,0,0.229-0.042,0.354-0.126s0.25-0.188,0.378-0.312c0.128-0.124,0.25-0.262,0.366-0.414
		c0.116-0.152,0.218-0.296,0.306-0.432c0.072-0.096,0.156-0.116,0.252-0.06c0.064,0.016,0.103,0.046,0.114,0.09
		s0.014,0.094,0.006,0.15c0.008,0.168-0.062,0.366-0.21,0.594c-0.147,0.228-0.334,0.446-0.558,0.653
		c-0.225,0.209-0.468,0.385-0.732,0.529c-0.264,0.144-0.516,0.215-0.756,0.215c-0.312,0-0.576-0.065-0.792-0.197
		c-0.216-0.133-0.344-0.334-0.384-0.606c-0.032-0.2-0.006-0.432,0.078-0.696s0.178-0.528,0.282-0.792
		c0.104-0.264,0.195-0.516,0.275-0.756c0.08-0.24,0.101-0.44,0.061-0.6c-0.017-0.056-0.057-0.09-0.12-0.102
		c-0.064-0.012-0.141-0.01-0.229,0.006c-0.256,0.04-0.479,0.19-0.672,0.45c-0.191,0.26-0.358,0.564-0.498,0.912
		c-0.14,0.348-0.256,0.71-0.348,1.086c-0.092,0.375-0.162,0.7-0.21,0.971c-0.017,0.129-0.055,0.215-0.114,0.259
		s-0.146,0.065-0.258,0.065c-0.168,0-0.328-0.027-0.48-0.084c-0.151-0.055-0.252-0.168-0.3-0.336c0-0.295,0.046-0.598,0.138-0.906
		c0.093-0.308,0.192-0.604,0.301-0.888c0.107-0.284,0.201-0.55,0.281-0.798c0.08-0.248,0.108-0.464,0.084-0.648
		c-0.023-0.048-0.08-0.086-0.168-0.114s-0.176-0.038-0.264-0.03c-0.256,0.041-0.476,0.182-0.66,0.426
		c-0.184,0.244-0.338,0.526-0.462,0.846c-0.124,0.32-0.224,0.646-0.3,0.978c-0.076,0.333-0.138,0.603-0.187,0.81
		c-0.016,0.072-0.032,0.145-0.048,0.217s-0.035,0.143-0.06,0.21s-0.054,0.124-0.091,0.168c-0.035,0.044-0.09,0.069-0.161,0.078
		c-0.04,0.024-0.08,0.028-0.12,0.012c-0.064-0.017-0.156-0.046-0.276-0.09c-0.12-0.044-0.22-0.153-0.3-0.33
		c-0.04-0.104-0.062-0.244-0.066-0.42c-0.004-0.176,0-0.36,0.012-0.552c0.012-0.192,0.03-0.378,0.054-0.558
		C15.834,9.469,15.854,9.323,15.871,9.211z"/>
	<path fill="#FFFFFF" d="M29.43,9.679c0,0.168-0.071,0.366-0.216,0.594c-0.144,0.228-0.326,0.444-0.546,0.648
		s-0.462,0.378-0.726,0.522c-0.265,0.144-0.517,0.215-0.757,0.215c-0.304,0-0.536-0.063-0.695-0.191
		c-0.16-0.128-0.269-0.368-0.324-0.721c-0.208,0.328-0.444,0.562-0.708,0.703c-0.264,0.139-0.512,0.213-0.744,0.222
		c-0.36,0-0.674-0.101-0.942-0.3c-0.268-0.2-0.426-0.496-0.474-0.888c-0.04-0.28-0.023-0.57,0.048-0.87
		c0.072-0.3,0.182-0.592,0.33-0.876s0.326-0.552,0.534-0.804s0.43-0.474,0.666-0.666s0.478-0.344,0.726-0.456
		c0.248-0.112,0.488-0.168,0.721-0.168c0.111,0,0.216,0.02,0.312,0.06s0.176,0.084,0.24,0.132l0.096-0.348
		c0.017-0.04,0.056-0.07,0.12-0.09c0.064-0.02,0.124-0.03,0.18-0.03c0.08,0,0.17,0.01,0.271,0.03c0.1,0.021,0.192,0.05,0.276,0.09
		s0.155,0.09,0.216,0.15c0.06,0.06,0.098,0.13,0.113,0.21c-0.016,0.224-0.094,0.582-0.233,1.074
		c-0.141,0.492-0.318,1.138-0.534,1.938c-0.032,0.112-0.056,0.214-0.072,0.306c-0.016,0.092-0.023,0.186-0.023,0.282
		c0.008,0.2,0.136,0.299,0.384,0.299c0.184,0,0.384-0.091,0.6-0.275c0.217-0.184,0.433-0.408,0.648-0.672l0.204-0.312
		c0.04-0.04,0.084-0.06,0.132-0.06s0.086,0.028,0.114,0.084C29.392,9.567,29.414,9.624,29.43,9.679z M25.218,10.675
		c0.16-0.008,0.296-0.044,0.408-0.108s0.208-0.15,0.288-0.258s0.147-0.234,0.204-0.378c0.056-0.144,0.107-0.3,0.156-0.468
		c0.088-0.36,0.174-0.704,0.258-1.032s0.17-0.66,0.258-0.996c-0.056-0.112-0.185-0.164-0.384-0.156
		c-0.24,0.024-0.471,0.15-0.69,0.378s-0.414,0.498-0.582,0.81s-0.296,0.628-0.384,0.948c-0.088,0.32-0.12,0.58-0.096,0.78
		c0.023,0.176,0.084,0.3,0.18,0.372C24.93,10.639,25.058,10.675,25.218,10.675z"/>
	<path fill="#FFFFFF" d="M32.034,9.739c0.008,0.184-0.063,0.386-0.216,0.606c-0.152,0.22-0.342,0.429-0.57,0.624
		c-0.228,0.196-0.478,0.359-0.75,0.492c-0.271,0.132-0.52,0.197-0.744,0.197c-0.336,0-0.569-0.065-0.701-0.197
		c-0.133-0.133-0.219-0.342-0.259-0.631c-0.023-0.144-0.031-0.333-0.023-0.569s0.03-0.496,0.065-0.78
		c0.036-0.284,0.088-0.572,0.156-0.864s0.15-0.566,0.246-0.822c0.096-0.256,0.21-0.476,0.342-0.66s0.282-0.308,0.45-0.372
		c0.176-0.04,0.316-0.048,0.42-0.024c0.136,0.016,0.232,0.06,0.288,0.132c0.056,0.072,0.084,0.144,0.084,0.216
		c-0.008,0.16-0.028,0.31-0.06,0.45c-0.032,0.14-0.072,0.282-0.12,0.426S30.54,8.261,30.48,8.425
		c-0.061,0.164-0.122,0.354-0.187,0.57c-0.063,0.2-0.134,0.434-0.21,0.702s-0.113,0.506-0.113,0.714c0.023,0.2,0.151,0.3,0.384,0.3
		c0.184,0,0.388-0.098,0.612-0.294c0.224-0.196,0.443-0.43,0.659-0.702c0.04-0.04,0.078-0.086,0.114-0.138
		c0.036-0.052,0.066-0.078,0.09-0.078c0.056,0,0.101,0.024,0.132,0.072C31.994,9.619,32.019,9.675,32.034,9.739z M30.786,6.007
		c-0.136-0.016-0.258-0.074-0.366-0.174c-0.107-0.1-0.182-0.254-0.222-0.462c-0.016-0.176-0.008-0.34,0.024-0.492
		c0.031-0.152,0.078-0.282,0.138-0.39s0.134-0.192,0.222-0.252s0.176-0.09,0.265-0.09c0.079,0,0.178,0.014,0.294,0.042
		c0.115,0.028,0.228,0.066,0.336,0.114c0.107,0.048,0.199,0.106,0.275,0.174c0.076,0.068,0.122,0.142,0.139,0.222
		c0,0.08-0.061,0.188-0.181,0.324c-0.104,0.128-0.188,0.252-0.252,0.372c-0.063,0.12-0.12,0.226-0.168,0.318
		c-0.048,0.092-0.098,0.166-0.149,0.222c-0.053,0.056-0.114,0.084-0.187,0.084c-0.023,0-0.05,0-0.078,0
		C30.849,6.019,30.818,6.015,30.786,6.007z"/>
	<path fill="#FFFFFF" d="M35.022,9.739c0,0.192-0.076,0.4-0.229,0.624c-0.151,0.224-0.344,0.434-0.575,0.629
		c-0.232,0.197-0.49,0.36-0.774,0.492c-0.284,0.133-0.558,0.198-0.822,0.198c-0.256,0-0.478-0.069-0.666-0.21
		c-0.188-0.14-0.302-0.37-0.342-0.689c-0.023-0.176-0.022-0.462,0.006-0.858s0.08-0.844,0.156-1.344
		c0.076-0.5,0.176-1.024,0.3-1.572s0.269-1.06,0.433-1.536c0.163-0.476,0.352-0.888,0.563-1.236c0.212-0.348,0.446-0.57,0.702-0.666
		c0.072-0.008,0.146-0.002,0.222,0.018s0.146,0.046,0.21,0.078c0.137,0.032,0.269,0.104,0.396,0.216s0.2,0.236,0.216,0.372
		c0.024,0.144-0.024,0.296-0.144,0.456c-0.12,0.176-0.255,0.416-0.402,0.72c-0.148,0.304-0.296,0.636-0.444,0.996
		c-0.147,0.36-0.29,0.736-0.426,1.128s-0.252,0.766-0.348,1.122c-0.097,0.356-0.168,0.682-0.216,0.978
		c-0.049,0.296-0.061,0.528-0.036,0.696c0.016,0.12,0.058,0.216,0.126,0.288c0.067,0.072,0.174,0.107,0.317,0.107
		c0.12,0,0.252-0.041,0.396-0.125c0.144-0.084,0.288-0.19,0.432-0.318c0.145-0.128,0.28-0.262,0.408-0.402
		c0.128-0.14,0.231-0.27,0.312-0.39c0.057-0.032,0.106-0.016,0.15,0.048C34.988,9.624,35.015,9.683,35.022,9.739z"/>
	<path fill="#FFFFFF" d="M38.382,11.551c-0.016,0.048-0.023,0.084-0.023,0.107c0.304,0.024,0.594,0.076,0.87,0.156
		c0.275,0.08,0.518,0.188,0.726,0.324c0.208,0.136,0.372,0.298,0.492,0.486c0.12,0.188,0.18,0.406,0.18,0.654
		c0,0.158-0.038,0.307-0.114,0.443s-0.202,0.203-0.378,0.203c-0.136,0-0.275-0.039-0.42-0.119c-0.144-0.08-0.256-0.203-0.336-0.373
		c-0.112-0.23-0.282-0.427-0.51-0.587c-0.229-0.16-0.479-0.284-0.75-0.372c-0.064,0.264-0.16,0.523-0.288,0.779
		s-0.288,0.486-0.479,0.691c-0.192,0.203-0.414,0.369-0.666,0.498c-0.253,0.127-0.53,0.191-0.834,0.191
		c-0.44,0-0.765-0.109-0.973-0.33s-0.312-0.482-0.312-0.787c0-0.264,0.069-0.499,0.21-0.707c0.14-0.208,0.328-0.39,0.563-0.546
		c0.236-0.155,0.511-0.284,0.822-0.384c0.312-0.1,0.636-0.17,0.972-0.21c0.04-0.208,0.078-0.404,0.114-0.589
		c0.036-0.184,0.082-0.355,0.138-0.515c-0.191,0.288-0.436,0.532-0.731,0.732c-0.296,0.199-0.608,0.3-0.937,0.3
		c-0.359,0-0.655-0.122-0.888-0.366s-0.348-0.57-0.348-0.978c0-0.176,0.014-0.386,0.042-0.63c0.028-0.244,0.069-0.498,0.126-0.762
		c0.056-0.264,0.124-0.528,0.204-0.792c0.079-0.264,0.17-0.498,0.27-0.702s0.214-0.37,0.342-0.498s0.265-0.192,0.408-0.192
		c0.176,0,0.312,0.018,0.408,0.054c0.096,0.036,0.166,0.08,0.21,0.132c0.044,0.052,0.07,0.11,0.078,0.174
		c0.008,0.064,0.012,0.124,0.012,0.18s-0.004,0.096-0.012,0.12c-0.04,0.168-0.092,0.332-0.156,0.492
		c-0.064,0.16-0.132,0.33-0.204,0.51c-0.072,0.18-0.149,0.372-0.233,0.576c-0.084,0.204-0.162,0.434-0.234,0.69
		c-0.017,0.064-0.034,0.146-0.054,0.246c-0.021,0.1-0.03,0.202-0.03,0.306c0,0.152,0.028,0.286,0.084,0.402
		c0.056,0.116,0.164,0.174,0.324,0.174c0.199,0,0.382-0.065,0.546-0.198c0.164-0.132,0.313-0.308,0.45-0.528
		c0.136-0.22,0.262-0.476,0.378-0.768c0.115-0.292,0.226-0.598,0.33-0.918c0.048-0.176,0.096-0.356,0.144-0.54
		s0.106-0.35,0.174-0.498c0.068-0.148,0.15-0.268,0.246-0.36s0.212-0.138,0.348-0.138c0.057,0,0.124,0.01,0.204,0.03
		s0.152,0.046,0.217,0.078c0.063,0.032,0.119,0.072,0.168,0.12c0.048,0.048,0.071,0.096,0.071,0.144
		c0,0.272-0.025,0.558-0.078,0.858c-0.052,0.3-0.124,0.626-0.216,0.978s-0.196,0.738-0.312,1.158
		C38.62,10.573,38.502,11.04,38.382,11.551z M35.262,13.387c-0.008,0.031-0.012,0.076-0.012,0.131c0,0.328,0.184,0.492,0.552,0.492
		c0.192,0,0.356-0.057,0.492-0.174c0.136-0.115,0.252-0.26,0.349-0.432c0.096-0.172,0.172-0.357,0.228-0.558
		s0.104-0.384,0.144-0.552c-0.216,0-0.424,0.021-0.624,0.066c-0.199,0.043-0.378,0.111-0.533,0.203
		c-0.156,0.092-0.288,0.206-0.396,0.342C35.353,13.043,35.286,13.204,35.262,13.387z"/>
</g>
</svg>
